<svg width="80" height="80" viewBox="0 0 80 80" fill="none" xmlns="http://www.w3.org/2000/svg">
<path d="M11.49 27.45C11.8023 27.45 12.1079 27.5403 12.37 27.71L25.24 36.1L33.61 31C34.1166 30.6835 34.7026 30.517 35.3 30.52C35.5593 30.5197 35.8177 30.5499 36.07 30.61C36.4852 30.7018 36.8768 30.8789 37.22 31.13C37.5683 31.3786 37.8635 31.6941 38.0884 32.0581C38.3133 32.4221 38.4635 32.8273 38.53 33.25C38.6165 33.8774 38.5177 34.5164 38.2459 35.0885C37.9741 35.6606 37.541 36.1407 37 36.47L28.63 41.65L30.32 56.91C30.3399 57.1252 30.3196 57.3422 30.26 57.55C30.2007 57.7588 30.0986 57.9529 29.96 58.12C29.8188 58.2797 29.6493 58.4119 29.46 58.51C29.2691 58.6028 29.0619 58.6571 28.85 58.67H28.71C28.2391 58.6642 27.7794 58.5262 27.3833 58.2715C26.9872 58.0169 26.6707 57.656 26.47 57.23L21.24 46.23L15.47 49.78C15.1193 49.9903 14.7552 50.1774 14.38 50.34L13.92 54.73C13.902 54.9218 13.8477 55.1084 13.76 55.28C13.6692 55.4512 13.5471 55.6038 13.4 55.73C13.1228 55.9721 12.768 56.1069 12.4 56.11H12.16C11.9523 56.0704 11.7549 55.9887 11.58 55.87C11.4106 55.7504 11.2676 55.5972 11.16 55.42C11.0868 55.2884 11.0329 55.1469 11 55L9.85 50.75C9.7269 50.6953 9.60963 50.6283 9.5 50.55L8.5 51.14C8.37052 51.219 8.22167 51.2605 8.07 51.26C7.93043 51.2567 7.79376 51.2194 7.6718 51.1515C7.54984 51.0835 7.44626 50.9869 7.37 50.87C7.31014 50.7797 7.26948 50.6781 7.25056 50.5714C7.23164 50.4648 7.23485 50.3554 7.26 50.25C7.29182 50.1592 7.33919 50.0746 7.4 50C7.46278 49.9125 7.54491 49.8406 7.64 49.79L8.64 49.18C8.63001 49.0702 8.63001 48.9598 8.64 48.85L5.34 45.96C5.23009 45.8587 5.13273 45.7445 5.05 45.62C4.93902 45.4303 4.87076 45.2187 4.85 45C4.83905 44.7829 4.86959 44.5657 4.94 44.36C5.01663 44.1517 5.13975 43.9636 5.3 43.81C5.45475 43.6559 5.64296 43.5395 5.85 43.47C6.04756 43.3788 6.2624 43.331 6.48 43.33C6.65779 43.3333 6.83369 43.3671 7 43.43L11.13 45C11.4458 44.7335 11.78 44.4896 12.13 44.27L17.85 40.7L10.34 31C10.02 30.6102 9.82818 30.1311 9.7906 29.6282C9.75301 29.1253 9.87154 28.623 10.13 28.19C10.2337 28.0015 10.377 27.8378 10.55 27.71C10.7251 27.5874 10.922 27.4992 11.13 27.45C11.2492 27.43 11.3708 27.43 11.49 27.45ZM11.49 25.7C11.2274 25.6991 10.9655 25.7293 10.71 25.79C10.2717 25.8893 9.85939 26.0802 9.5 26.35C9.1436 26.622 8.84453 26.9619 8.62 27.35C8.19776 28.0844 8.00804 28.9295 8.07588 29.774C8.14372 30.6184 8.46593 31.4224 9 32.08L15.31 40.19L11.17 42.74H11.11L10.83 42.94L7.58 41.75C7.21653 41.608 6.83021 41.5334 6.44 41.53C5.9894 41.5288 5.5434 41.6207 5.13 41.8C4.69801 41.9784 4.31177 42.2518 4 42.6C3.68416 42.9458 3.44554 43.3548 3.3 43.8C3.16208 44.2461 3.11783 44.7159 3.17 45.18C3.22749 45.6446 3.38438 46.0914 3.63 46.49C3.80364 46.7506 4.01226 46.9861 4.25 47.19L6.12 48.82C5.89965 49.1027 5.74087 49.4283 5.65385 49.776C5.56682 50.1237 5.55349 50.4858 5.61471 50.8389C5.67592 51.1921 5.81032 51.5285 6.00929 51.8266C6.20825 52.1247 6.46737 52.378 6.77 52.57C7.1759 52.8222 7.64224 52.9603 8.12 52.97H8.62L9.24 55.37C9.31163 55.6935 9.44031 56.0016 9.62 56.28C9.87351 56.6846 10.2154 57.0265 10.62 57.28C11.0104 57.5349 11.4498 57.7052 11.91 57.78H12.42C13.1819 57.7641 13.9156 57.489 14.5 57C15.1437 56.459 15.5495 55.687 15.63 54.85L16 51.42L16.34 51.23L20.46 48.7L24.84 58C25.1772 58.7298 25.7159 59.3482 26.3926 59.7822C27.0694 60.2162 27.856 60.4479 28.66 60.45H28.91C29.3551 60.4235 29.7904 60.3079 30.19 60.11C30.5754 59.9028 30.9154 59.6206 31.19 59.28C31.4907 58.93 31.7175 58.5228 31.8567 58.0828C31.9959 57.6429 32.0447 57.1793 32 56.72L30.5 42.55L37.94 38C38.7815 37.4763 39.4522 36.7188 39.87 35.82C40.1784 35.147 40.3335 34.414 40.3241 33.6738C40.3148 32.9336 40.1412 32.2047 39.8159 31.5398C39.4906 30.8749 39.0217 30.2904 38.4431 29.8287C37.8645 29.367 37.1906 29.0396 36.47 28.87C36.0862 28.7823 35.6937 28.7387 35.3 28.74C34.3778 28.7366 33.4732 28.9931 32.69 29.48L25.26 34L13.33 26.24C12.7824 25.8845 12.1428 25.6969 11.49 25.7Z" fill="white"/>
<path d="M53.28 47.26C53.8002 47.26 54.3086 47.1058 54.7411 46.8168C55.1736 46.5278 55.5107 46.117 55.7098 45.6365C55.9089 45.1559 55.9609 44.6271 55.8595 44.1169C55.758 43.6067 55.5075 43.1381 55.1397 42.7703C54.7719 42.4025 54.3032 42.152 53.7931 42.0505C53.2829 41.9491 52.7541 42.0011 52.2735 42.2002C51.793 42.3993 51.3822 42.7364 51.0932 43.1689C50.8042 43.6014 50.65 44.1098 50.65 44.63C50.65 44.9754 50.718 45.3174 50.8502 45.6365C50.9824 45.9555 51.1761 46.2455 51.4203 46.4897C51.6645 46.7339 51.9545 46.9276 52.2735 47.0598C52.5926 47.192 52.9346 47.26 53.28 47.26Z" fill="#F06F5E"/>
<path d="M53.28 48.13C52.5849 48.132 51.9049 47.9276 51.3262 47.5426C50.7474 47.1577 50.296 46.6096 50.0291 45.9678C49.7622 45.3261 49.6919 44.6195 49.827 43.9377C49.9621 43.2559 50.2966 42.6296 50.7881 42.1381C51.2796 41.6466 51.9059 41.3121 52.5877 41.177C53.2695 41.0419 53.9761 41.1122 54.6178 41.3791C55.2596 41.646 55.8077 42.0975 56.1926 42.6762C56.5775 43.2549 56.782 43.9349 56.78 44.63C56.7774 45.5575 56.4078 46.4462 55.752 47.102C55.0962 47.7578 54.2074 48.1274 53.28 48.13ZM53.28 42.87C52.9303 42.8621 52.5862 42.9585 52.2915 43.147C51.9969 43.3355 51.7651 43.6075 51.6257 43.9283C51.4864 44.2491 51.4458 44.6042 51.5091 44.9482C51.5724 45.2922 51.7368 45.6095 51.9813 45.8597C52.2257 46.1098 52.5392 46.2815 52.8817 46.3527C53.2241 46.4239 53.58 46.3915 53.904 46.2595C54.2279 46.1276 54.5052 45.9021 54.7004 45.6118C54.8956 45.3216 54.9999 44.9798 55 44.63C55.0001 44.1701 54.8202 43.7284 54.4987 43.3994C54.1773 43.0705 53.7398 42.8805 53.28 42.87Z" fill="#222222"/>
<path d="M52.51 44.9C52.5524 44.528 52.7097 44.1784 52.96 43.9L52.51 44.9Z" fill="white"/>
<path d="M52.51 45.49H52.44C52.285 45.4724 52.1433 45.3942 52.0458 45.2723C51.9484 45.1505 51.9031 44.9951 51.92 44.84C51.9784 44.3455 52.1879 43.8811 52.52 43.51C52.6305 43.4007 52.7796 43.3394 52.935 43.3394C53.0904 43.3394 53.2395 43.4007 53.35 43.51C53.457 43.6217 53.5167 43.7704 53.5167 43.925C53.5167 44.0797 53.457 44.2283 53.35 44.34C53.1781 44.5287 53.0697 44.7665 53.04 45.02C53.016 45.1459 52.951 45.2603 52.8551 45.3453C52.7592 45.4304 52.6378 45.4812 52.51 45.49Z" fill="#222222"/>
<path d="M53.28 46.38C53.5107 46.38 53.732 46.4717 53.8952 46.6348C54.0583 46.798 54.15 47.0193 54.15 47.25V59.8C54.15 60.0334 54.0573 60.2572 53.8922 60.4223C53.7272 60.5873 53.5034 60.68 53.27 60.68C53.0393 60.68 52.818 60.5883 52.6548 60.4252C52.4917 60.262 52.4 60.0407 52.4 59.81V47.26C52.4 47.1444 52.4228 47.03 52.467 46.9232C52.5112 46.8165 52.576 46.7195 52.6577 46.6377C52.7395 46.556 52.8365 46.4912 52.9432 46.447C53.05 46.4028 53.1644 46.38 53.28 46.38Z" fill="#222222"/>
<path d="M11.23 45.89L6.67 44.19C6.58938 44.1556 6.50265 44.1379 6.415 44.1379C6.32736 44.1379 6.24062 44.1556 6.16 44.19C6.06392 44.2252 5.97803 44.2836 5.91 44.36C5.84143 44.4307 5.7901 44.5162 5.76 44.61C5.73503 44.7084 5.73503 44.8115 5.76 44.91C5.77093 45.0115 5.80892 45.1082 5.87 45.19C5.90485 45.2467 5.94877 45.2974 6 45.34L9.6 48.51" fill="#6C9DEE"/>
<path d="M9.6 49.38C9.38111 49.3853 9.1678 49.3107 9 49.17L5.4 46C5.28684 45.8953 5.18617 45.7778 5.1 45.65C4.97641 45.4529 4.89788 45.231 4.87 45C4.82528 44.7755 4.82528 44.5445 4.87 44.32C4.94584 44.0937 5.0685 43.8858 5.23 43.71C5.38528 43.5423 5.57682 43.4124 5.79 43.33C6.1606 43.1903 6.5694 43.1903 6.94 43.33L11.48 45.03C11.5877 45.0701 11.6864 45.1309 11.7706 45.2091C11.8547 45.2874 11.9227 45.3814 11.9705 45.4858C12.0183 45.5903 12.0451 45.7032 12.0493 45.818C12.0535 45.9328 12.0351 46.0473 11.995 46.155C11.9549 46.2627 11.8941 46.3614 11.8159 46.4456C11.7376 46.5297 11.6436 46.5977 11.5392 46.6455C11.4347 46.6933 11.3218 46.7201 11.207 46.7243C11.0922 46.7285 10.9777 46.7101 10.87 46.67L7.33 45.37L10.17 47.85C10.2569 47.9247 10.3282 48.0158 10.3798 48.1182C10.4314 48.2205 10.4622 48.332 10.4706 48.4463C10.479 48.5606 10.4647 48.6754 10.4285 48.7842C10.3924 48.8929 10.3351 48.9935 10.26 49.08C10.1776 49.174 10.0761 49.2494 9.96233 49.3011C9.84852 49.3529 9.72501 49.3797 9.6 49.38Z" fill="#222222"/>
<path d="M13.61 49.75L13.1 54.61C13.0919 54.6937 13.0682 54.7751 13.03 54.85C12.9881 54.925 12.934 54.9926 12.87 55.05C12.7968 55.1106 12.7116 55.1549 12.62 55.18C12.5244 55.2 12.4256 55.2 12.33 55.18C12.2364 55.1625 12.1477 55.125 12.07 55.07C11.9893 55.0191 11.9209 54.9507 11.87 54.87C11.8293 54.8135 11.802 54.7486 11.79 54.68L10.66 50.28" fill="#6C9DEE"/>
<path d="M12.43 56.08H12.18C11.9646 56.0458 11.7596 55.9638 11.58 55.84C11.3954 55.7173 11.2387 55.5572 11.12 55.37C11.0397 55.229 10.9791 55.0775 10.94 54.92L9.81001 50.52C9.76875 50.3007 9.81234 50.0739 9.93196 49.8855C10.0516 49.6971 10.2383 49.5613 10.4543 49.5053C10.6704 49.4494 10.8996 49.4777 11.0956 49.5844C11.2916 49.691 11.4397 49.8682 11.51 50.08L12.36 53.39L12.74 49.66C12.7495 49.5411 12.7835 49.4255 12.8401 49.3204C12.8966 49.2154 12.9743 49.1233 13.0684 49.05C13.1624 48.9766 13.2707 48.9236 13.3863 48.8944C13.5019 48.8651 13.6224 48.8602 13.74 48.88C13.8578 48.8923 13.9719 48.9282 14.0755 48.9856C14.179 49.043 14.2699 49.1207 14.3428 49.214C14.4156 49.3074 14.4688 49.4145 14.4993 49.5289C14.5297 49.6434 14.5368 49.7628 14.52 49.88L14 54.7C13.9772 54.8953 13.9196 55.0849 13.83 55.26C13.7383 55.4419 13.6087 55.6022 13.45 55.73C13.2849 55.8635 13.0944 55.9622 12.89 56.02C12.7403 56.0616 12.5854 56.0818 12.43 56.08Z" fill="#222222"/>
<path d="M25.22 37.08L11.92 28.4C11.8356 28.3418 11.7404 28.301 11.64 28.28C11.5382 28.255 11.4318 28.255 11.33 28.28C11.2296 28.301 11.1344 28.3418 11.05 28.4C10.9681 28.462 10.9 28.5403 10.85 28.63C10.6838 28.9177 10.6072 29.2485 10.63 29.58C10.6576 29.9122 10.7829 30.2288 10.99 30.49L19.06 40.85" fill="#6C9DEE"/>
<path d="M19.06 41.73C18.9275 41.7312 18.7964 41.7021 18.6768 41.6449C18.5572 41.5877 18.4523 41.5039 18.37 41.4L10.3 31C9.98996 30.6021 9.80234 30.1226 9.76001 29.62C9.72228 29.1145 9.83724 28.6094 10.09 28.17C10.1981 27.9672 10.3522 27.7925 10.54 27.66C10.7196 27.5302 10.9237 27.4383 11.14 27.39C11.3611 27.345 11.5889 27.345 11.81 27.39C12.0259 27.4342 12.2302 27.5227 12.41 27.65L25.7 36.35C25.7959 36.4157 25.8779 36.4996 25.9413 36.5969C26.0048 36.6943 26.0484 36.8032 26.0698 36.9174C26.0911 37.0316 26.0898 37.1489 26.0658 37.2626C26.0418 37.3763 25.9957 37.4841 25.93 37.58C25.8644 37.6759 25.7805 37.7579 25.6831 37.8213C25.5858 37.8847 25.4769 37.9284 25.3626 37.9497C25.2484 37.9711 25.1311 37.9698 25.0174 37.9458C24.9037 37.9218 24.7959 37.8757 24.7 37.81L11.54 29.2C11.5238 29.3061 11.5238 29.414 11.54 29.52C11.5521 29.6785 11.6075 29.8307 11.7 29.96L19.78 40.32C19.9197 40.5043 19.9822 40.7358 19.9542 40.9654C19.9262 41.195 19.8099 41.4047 19.63 41.55C19.4661 41.6732 19.265 41.7367 19.06 41.73Z" fill="#222222"/>
<path d="M27.77 41.19L29.52 57C29.5351 57.0994 29.5351 57.2006 29.52 57.3C29.4903 57.4029 29.4391 57.4983 29.37 57.58C29.3063 57.6615 29.224 57.7267 29.13 57.77C29.0398 57.8162 28.9411 57.8435 28.84 57.85C28.5043 57.8614 28.1731 57.7708 27.89 57.59C27.6087 57.4114 27.3862 57.1541 27.25 56.85L21.61 45" fill="#6C9DEE"/>
<path d="M28.77 58.69C28.2855 58.6933 27.8101 58.558 27.4 58.3C26.9574 58.0364 26.6079 57.6414 26.4 57.17L20.82 45.38C20.7694 45.2772 20.7398 45.1652 20.7331 45.0508C20.7264 44.9364 20.7426 44.8218 20.7808 44.7137C20.819 44.6056 20.8784 44.5063 20.9555 44.4215C21.0327 44.3367 21.126 44.2682 21.23 44.22C21.4397 44.1201 21.6803 44.1072 21.8995 44.184C22.1186 44.2608 22.2985 44.4211 22.4 44.63L28 56.44C28.0636 56.5974 28.1757 56.7305 28.32 56.82C28.4171 56.8891 28.5312 56.9305 28.65 56.94L26.9 41.28C26.8802 41.1632 26.8848 41.0435 26.9135 40.9285C26.9421 40.8135 26.9942 40.7057 27.0665 40.6118C27.1388 40.5179 27.2298 40.44 27.3336 40.3829C27.4375 40.3258 27.552 40.2907 27.67 40.28C27.7867 40.2617 27.9058 40.2674 28.0202 40.2967C28.1346 40.3259 28.2418 40.3782 28.3354 40.4502C28.429 40.5222 28.5069 40.6126 28.5644 40.7157C28.6219 40.8188 28.6579 40.9326 28.67 41.05L30.42 56.83C30.4465 57.0595 30.4226 57.292 30.3501 57.5113C30.2775 57.7307 30.1581 57.9315 30 58.1C29.8602 58.2771 29.6825 58.4206 29.48 58.52C29.2809 58.6207 29.0629 58.6786 28.84 58.69H28.77Z" fill="#222222"/>
<path d="M15.06 49L36.59 35.79C37.1366 35.4511 37.5273 34.91 37.6771 34.2846C37.827 33.6591 37.7238 32.9998 37.39 32.45C37.0489 31.9028 36.5067 31.5114 35.88 31.36C35.5693 31.2844 35.2468 31.2711 34.931 31.3209C34.6152 31.3706 34.3123 31.4825 34.04 31.65L12.51 44.9C10.07 46.53 9.12999 48.73 9.66999 49.58C10.21 50.43 12.56 50.51 15.06 49Z" fill="white"/>
<path d="M11.33 51.06C10.8781 51.1088 10.4212 51.0427 10.0017 50.8679C9.58217 50.6931 9.21355 50.4152 8.93 50.06C8 48.6 9.42 45.91 12 44.17L33.58 30.9C34.3306 30.4478 35.2292 30.3097 36.0809 30.5156C36.9326 30.7215 37.6689 31.2549 38.13 32C38.5883 32.7478 38.7321 33.6465 38.53 34.5C38.3181 35.3378 37.7821 36.0572 37.04 36.5L15.52 49.78C14.2594 50.5659 12.8146 51.0072 11.33 51.06ZM35.33 32.17C35.0408 32.1707 34.7573 32.2502 34.51 32.4L13 45.64C10.83 47.09 10.3 48.8 10.44 49.12C10.58 49.44 12.39 49.61 14.64 48.29L36.13 35C36.3042 34.8944 36.4558 34.7554 36.5759 34.5908C36.696 34.4263 36.7823 34.2396 36.8297 34.0415C36.8771 33.8434 36.8848 33.6378 36.8522 33.4367C36.8197 33.2356 36.7475 33.043 36.64 32.87C36.5281 32.6928 36.382 32.5397 36.2103 32.4195C36.0387 32.2993 35.8448 32.2145 35.64 32.17C35.5304 32.1576 35.4197 32.1576 35.31 32.17H35.33Z" fill="#222222"/>
<path d="M8.14999 51.31C8.00026 51.312 7.85256 51.2753 7.72117 51.2034C7.58978 51.1316 7.47915 51.0271 7.39999 50.9C7.28067 50.7004 7.24421 50.462 7.29841 50.2359C7.35261 50.0098 7.49316 49.8138 7.68999 49.69L12.41 46.78C12.608 46.6612 12.8449 46.625 13.0694 46.6793C13.2939 46.7335 13.488 46.8738 13.61 47.07C13.6719 47.1667 13.7138 47.2749 13.7333 47.3881C13.7527 47.5013 13.7493 47.6172 13.7232 47.7291C13.6971 47.8409 13.6489 47.9464 13.5813 48.0393C13.5138 48.1322 13.4283 48.2107 13.33 48.27L8.60999 51.18C8.47138 51.2645 8.31231 51.3094 8.14999 51.31Z" fill="#222222"/>
<path d="M34.2 33.31C34.506 33.4431 34.7642 33.6663 34.94 33.95C35.0943 34.1959 35.1774 34.4797 35.18 34.77" fill="white"/>
<path d="M35.18 35.36C35.1021 35.3614 35.0248 35.347 34.9526 35.3179C34.8804 35.2887 34.8148 35.2453 34.7598 35.1902C34.7047 35.1352 34.6613 35.0696 34.6321 34.9974C34.603 34.9252 34.5886 34.8479 34.59 34.77C34.5869 34.5896 34.5351 34.4134 34.44 34.26C34.3253 34.0778 34.1579 33.9347 33.96 33.85C33.889 33.8186 33.8249 33.7735 33.7714 33.7172C33.7179 33.661 33.676 33.5947 33.6481 33.5223C33.6202 33.4498 33.6069 33.3726 33.609 33.295C33.611 33.2173 33.6284 33.1409 33.66 33.07C33.6904 32.9994 33.7345 32.9355 33.7898 32.8821C33.8452 32.8286 33.9105 32.7868 33.9822 32.7588C34.0539 32.7309 34.1303 32.7175 34.2072 32.7194C34.2841 32.7214 34.3598 32.7386 34.43 32.77C34.8228 32.9382 35.1584 33.2166 35.3962 33.5715C35.634 33.9265 35.7639 34.3428 35.77 34.77C35.7713 34.8483 35.757 34.9261 35.728 34.9989C35.6989 35.0716 35.6557 35.1378 35.6008 35.1937C35.5458 35.2495 35.4804 35.2939 35.4081 35.3242C35.3359 35.3544 35.2583 35.37 35.18 35.37V35.36Z" fill="#222222"/>
<path d="M53.28 41.19C54.1235 41.1887 54.9383 41.4965 55.5703 42.0551C56.2024 42.6138 56.6078 43.3847 56.71 44.222C56.8122 45.0593 56.6041 45.9051 56.125 46.5994C55.6459 47.2937 54.9291 47.7884 54.11 47.99V59.8C54.0868 60.0034 53.9909 60.1916 53.84 60.33C53.6836 60.4632 53.4855 60.5375 53.28 60.54C53.0757 60.541 52.8784 60.4657 52.7267 60.3288C52.5751 60.1919 52.4799 60.0033 52.46 59.8V48C51.8346 47.8577 51.2613 47.5438 50.8044 47.0937C50.3475 46.6435 50.0252 46.0749 49.8735 45.4518C49.7219 44.8286 49.747 44.1754 49.946 43.5657C50.1449 42.956 50.5099 42.4138 51 42C51.6307 41.4388 52.4458 41.1292 53.29 41.13L53.28 41.19ZM53.28 39.42C52.1159 39.3997 50.9787 39.7707 50.0505 40.4736C49.1223 41.1764 48.4568 42.1704 48.1606 43.2964C47.8644 44.4223 47.9546 45.6151 48.4169 46.6837C48.8791 47.7523 49.6866 48.6349 50.71 49.19V59.8C50.7509 60.4552 51.0399 61.0702 51.5183 61.5197C51.9968 61.9692 52.6285 62.2195 53.285 62.2195C53.9415 62.2195 54.5733 61.9692 55.0517 61.5197C55.5301 61.0702 55.8192 60.4552 55.86 59.8V49.19C56.8582 48.6223 57.6404 47.7401 58.0845 46.6811C58.5286 45.6221 58.6097 44.4459 58.3151 43.336C58.0205 42.226 57.3667 41.2449 56.4559 40.5455C55.5451 39.8462 54.4284 39.468 53.28 39.47V39.42Z" fill="white"/>
<path d="M40.05 32C39.8609 32.0037 39.6757 31.9456 39.5225 31.8346C39.3694 31.7237 39.2566 31.5658 39.2012 31.3849C39.1458 31.2041 39.1508 31.0101 39.2156 30.8323C39.2803 30.6546 39.4012 30.5028 39.56 30.4L40.96 29.46C41.1523 29.3274 41.3894 29.2766 41.6191 29.3188C41.8488 29.361 42.0524 29.4927 42.185 29.685C42.3176 29.8773 42.3684 30.1144 42.3262 30.3441C42.284 30.5738 42.1523 30.7774 41.96 30.91L40.56 31.85C40.4117 31.9559 40.232 32.0088 40.05 32Z" fill="#CEDEF9"/>
<path d="M60.6 59.2C60.385 59.1939 60.1796 59.1093 60.0227 58.962C59.8658 58.8148 59.7683 58.6152 59.7486 58.4009C59.7289 58.1867 59.7884 57.9727 59.9158 57.7993C60.0432 57.6259 60.2297 57.5052 60.44 57.46C61.0922 57.3468 61.7368 57.1931 62.37 57C62.73 56.89 63.09 56.76 63.45 56.62C63.557 56.5786 63.6712 56.5588 63.7859 56.5615C63.9006 56.5642 64.0136 56.5896 64.1186 56.636C64.2235 56.6824 64.3183 56.7491 64.3974 56.8321C64.4766 56.9152 64.5386 57.013 64.58 57.12C64.6214 57.227 64.6413 57.3412 64.6385 57.4559C64.6358 57.5706 64.6105 57.6836 64.564 57.7886C64.5176 57.8935 64.451 57.9883 64.3679 58.0674C64.2849 58.1466 64.187 58.2086 64.08 58.25C63.69 58.4 63.3 58.54 62.9 58.67C62.1981 58.8901 61.4835 59.0671 60.76 59.2H60.6ZM66.73 56.85C66.5782 56.8509 66.4288 56.8116 66.2971 56.7361C66.1653 56.6606 66.0559 56.5515 65.98 56.42C65.9207 56.3211 65.8817 56.2114 65.8652 56.0972C65.8487 55.9831 65.855 55.8668 65.8839 55.7551C65.9127 55.6435 65.9635 55.5387 66.0332 55.4468C66.1029 55.3549 66.1902 55.2778 66.29 55.22C67.1988 54.6882 68.0647 54.0864 68.88 53.42C68.968 53.3465 69.0696 53.291 69.179 53.2567C69.2885 53.2224 69.4036 53.2101 69.5178 53.2203C69.632 53.2305 69.7431 53.2631 69.8447 53.3162C69.9463 53.3694 70.0365 53.442 70.11 53.53C70.1836 53.618 70.239 53.7196 70.2733 53.829C70.3076 53.9385 70.32 54.0536 70.3097 54.1678C70.2995 54.282 70.2669 54.3931 70.2138 54.4947C70.1606 54.5963 70.088 54.6865 70 54.76C69.1176 55.4998 68.178 56.1685 67.19 56.76C67.0487 56.8341 66.8888 56.8654 66.73 56.85ZM71.8 52.67C71.6319 52.6703 71.4674 52.6219 71.3262 52.5307C71.185 52.4394 71.0733 52.3093 71.0046 52.1559C70.9358 52.0025 70.913 51.8325 70.9388 51.6664C70.9646 51.5003 71.038 51.3453 71.15 51.22C71.8279 50.4232 72.4462 49.5775 73 48.69C73.0603 48.5927 73.1392 48.5082 73.2322 48.4415C73.3252 48.3747 73.4304 48.327 73.5419 48.3009C73.6534 48.2749 73.7689 48.2712 73.8818 48.2899C73.9948 48.3086 74.1029 48.3494 74.2 48.41C74.3952 48.5354 74.5337 48.7321 74.586 48.9581C74.6383 49.1841 74.6002 49.4216 74.48 49.62C73.8681 50.5904 73.1792 51.51 72.42 52.37C72.3425 52.4596 72.2476 52.5324 72.141 52.584C72.0344 52.6356 71.9183 52.6648 71.8 52.67ZM75.3 47.11C75.1938 47.0931 75.0919 47.0558 75 47C74.7873 46.9076 74.6196 46.735 74.5334 46.5196C74.4473 46.3043 74.4497 46.0636 74.54 45.85C74.9392 44.9449 75.2733 44.0126 75.54 43.06V42.88C75.5891 42.6533 75.7262 42.4553 75.9213 42.3296C76.0178 42.2674 76.1257 42.2248 76.2387 42.2043C76.3518 42.1838 76.4677 42.1857 76.58 42.21C76.6923 42.2343 76.7987 42.2805 76.8931 42.3459C76.9876 42.4113 77.0682 42.4947 77.1304 42.5913C77.1926 42.6878 77.2352 42.7957 77.2557 42.9087C77.2762 43.0218 77.2743 43.1377 77.25 43.25V43.47C76.9948 44.5172 76.6605 45.5434 76.25 46.54C76.181 46.7295 76.0489 46.8895 75.876 46.9933C75.703 47.097 75.4997 47.1382 75.3 47.11ZM76.81 40.72H76.75C76.6344 40.7124 76.5213 40.682 76.4175 40.6306C76.3136 40.5792 76.2209 40.5077 76.1447 40.4204C76.0685 40.3331 76.0103 40.2315 75.9735 40.1216C75.9366 40.0117 75.9219 39.8956 75.93 39.78C75.93 39.32 75.93 38.86 75.93 38.39C75.93 37.92 75.93 37.21 75.85 36.62C75.8321 36.5011 75.8388 36.3797 75.8696 36.2634C75.9005 36.1472 75.9548 36.0385 76.0294 35.944C76.1039 35.8496 76.1969 35.7714 76.3028 35.7144C76.4087 35.6573 76.5252 35.6226 76.6451 35.6123C76.7649 35.602 76.8856 35.6164 76.9997 35.6546C77.1137 35.6928 77.2188 35.754 77.3082 35.8344C77.3977 35.9148 77.4698 36.0127 77.52 36.122C77.5702 36.2313 77.5974 36.3498 77.6 36.47C77.6 37.11 77.68 37.76 77.68 38.39C77.68 39.02 77.68 39.39 77.68 39.9C77.6649 40.1211 77.5669 40.3284 77.4056 40.4804C77.2444 40.6324 77.0316 40.718 76.81 40.72ZM55.81 35.72H55.54C55.4172 35.7332 55.2931 35.7203 55.1756 35.6823C55.0581 35.6444 54.95 35.5821 54.8581 35.4995C54.7663 35.417 54.6929 35.3161 54.6426 35.2033C54.5923 35.0906 54.5663 34.9685 54.5663 34.845C54.5663 34.7215 54.5923 34.5995 54.6426 34.4867C54.6929 34.3739 54.7663 34.273 54.8581 34.1905C54.95 34.108 55.0581 34.0457 55.1756 34.0077C55.2931 33.9697 55.4172 33.9569 55.54 33.97H55.77C56.6741 33.9926 57.574 33.8398 58.42 33.52C58.6335 33.4312 58.8736 33.4308 59.0874 33.5189C59.3011 33.6071 59.4712 33.7765 59.56 33.99C59.6489 34.2035 59.6493 34.4436 59.5611 34.6574C59.473 34.8711 59.3035 35.0412 59.09 35.13C58.0442 35.5325 56.9305 35.7295 55.81 35.71V35.72ZM52.46 34.72C52.294 34.7235 52.1306 34.6783 51.99 34.59C50.973 33.9292 50.0879 33.0848 49.38 32.1C49.2981 32.0087 49.2364 31.9012 49.199 31.7844C49.1616 31.6676 49.1493 31.5442 49.1629 31.4223C49.1765 31.3005 49.2158 31.1828 49.278 31.0772C49.3403 30.9715 49.4242 30.8803 49.5242 30.8093C49.6243 30.7384 49.7382 30.6894 49.8585 30.6655C49.9788 30.6417 50.1027 30.6436 50.2223 30.671C50.3418 30.6985 50.4542 30.7509 50.552 30.8248C50.6498 30.8988 50.731 30.9925 50.79 31.1C51.3757 31.8913 52.1009 32.5691 52.93 33.1C53.1239 33.2268 53.26 33.425 53.3087 33.6516C53.3573 33.8781 53.3147 34.1147 53.19 34.31C53.1133 34.4349 53.006 34.5381 52.8783 34.6098C52.7505 34.6816 52.6065 34.7195 52.46 34.72ZM76.26 34.17C76.0626 34.1684 75.8714 34.1005 75.7173 33.9772C75.5631 33.8539 75.4549 33.6823 75.41 33.49C75.2297 32.7388 75.0093 31.9977 74.75 31.27C74.66 31 74.56 30.74 74.45 30.47C74.4065 30.3638 74.3846 30.25 74.3858 30.1352C74.387 30.0204 74.4111 29.907 74.4567 29.8017C74.5024 29.6964 74.5687 29.6013 74.6517 29.522C74.7347 29.4427 74.8327 29.3808 74.94 29.34C75.0454 29.2948 75.1589 29.2714 75.2736 29.2712C75.3883 29.271 75.5019 29.294 75.6075 29.3388C75.7131 29.3837 75.8085 29.4494 75.888 29.5321C75.9674 29.6148 76.0294 29.7127 76.07 29.82C76.19 30.1067 76.3 30.3967 76.4 30.69C76.682 31.4759 76.9191 32.2772 77.11 33.09C77.1494 33.3081 77.1041 33.5331 76.9833 33.7189C76.8625 33.9048 76.6754 34.0375 76.46 34.09L76.26 34.17ZM61.14 33C61.0197 33.002 60.9003 32.9781 60.79 32.93C60.5765 32.8358 60.4092 32.6607 60.3248 32.4432C60.2405 32.2257 60.2459 31.9835 60.34 31.77C60.5509 31.3055 60.6567 30.8001 60.65 30.29C60.6509 29.8945 60.597 29.5008 60.49 29.12C60.4303 28.8959 60.4621 28.6573 60.5784 28.4566C60.6947 28.2559 60.8859 28.1097 61.11 28.05C61.3341 27.9903 61.5728 28.0221 61.7734 28.1384C61.9741 28.2547 62.1203 28.4459 62.18 28.67C62.3269 29.1974 62.4009 29.7425 62.4 30.29C62.4021 31.0474 62.2454 31.7969 61.94 32.49C61.8703 32.6433 61.7577 32.7731 61.6156 32.8637C61.4736 32.9542 61.3084 33.0016 61.14 33ZM48.6 29.52C48.4147 29.52 48.2343 29.4608 48.085 29.351C47.9357 29.2413 47.8254 29.0868 47.77 28.91C47.6533 28.5497 47.5598 28.1823 47.49 27.81C46.6 28.24 45.67 28.73 44.71 29.27C44.6102 29.3265 44.5003 29.3627 44.3864 29.3767C44.2726 29.3907 44.1572 29.3821 44.0467 29.3515C43.9362 29.3208 43.8328 29.2687 43.7424 29.1981C43.6521 29.1275 43.5765 29.0398 43.52 28.94C43.4635 28.8402 43.4273 28.7303 43.4133 28.6164C43.3993 28.5026 43.4079 28.3872 43.4386 28.2767C43.4692 28.1662 43.5213 28.0628 43.5919 27.9724C43.6625 27.8821 43.7502 27.8065 43.85 27.75C44.85 27.17 45.85 26.64 46.85 26.19C47.0089 26.1152 47.1859 26.0875 47.36 26.11C47.36 25.8633 47.36 25.6133 47.36 25.36C47.3933 25.1388 47.5095 24.9386 47.6851 24.8001C47.8607 24.6615 48.0825 24.595 48.3054 24.6141C48.5282 24.6332 48.7354 24.7365 48.8849 24.9029C49.0344 25.0693 49.1149 25.2864 49.11 25.51C49.11 25.71 49.11 25.91 49.11 26.11C49.1121 26.8971 49.2335 27.6793 49.47 28.43C49.5361 28.6528 49.5124 28.8926 49.404 29.0981C49.2956 29.3037 49.1111 29.4587 48.89 29.53C48.7933 29.5389 48.6959 29.5356 48.6 29.52ZM73.81 28.06C73.6569 28.0607 73.5062 28.0213 73.3729 27.9459C73.2396 27.8705 73.1283 27.7616 73.05 27.63C72.5203 26.7072 71.9184 25.8278 71.25 25C71.12 24.817 71.0649 24.5913 71.0958 24.369C71.1267 24.1467 71.2414 23.9447 71.4164 23.8042C71.5914 23.6636 71.8135 23.5953 72.0373 23.6131C72.261 23.6309 72.4695 23.7336 72.62 23.9C73.3343 24.7916 73.9827 25.7341 74.56 26.72C74.6193 26.8189 74.6583 26.9287 74.6748 27.0428C74.6913 27.1569 74.685 27.2732 74.6561 27.3849C74.6273 27.4965 74.5765 27.6014 74.5068 27.6932C74.4371 27.7851 74.3498 27.8622 74.25 27.92C74.1184 28.005 73.9665 28.0533 73.81 28.06ZM59.67 27C59.4485 26.9998 59.2349 26.9179 59.07 26.77C58.8764 26.5866 58.6654 26.4225 58.44 26.28C57.8693 25.9439 57.2367 25.7262 56.58 25.64C56.4652 25.6242 56.3547 25.5855 56.2551 25.5264C56.1554 25.4673 56.0686 25.3888 55.9996 25.2957C55.9307 25.2025 55.8811 25.0966 55.8537 24.984C55.8262 24.8714 55.8216 24.7544 55.84 24.64C55.8746 24.4093 55.9993 24.2018 56.1868 24.063C56.3743 23.9243 56.6093 23.8656 56.84 23.9C57.7307 24.0206 58.5879 24.3199 59.36 24.78C59.6811 24.9811 59.9825 25.2121 60.26 25.47C60.4305 25.6282 60.5314 25.8474 60.5408 26.0797C60.5502 26.312 60.4672 26.5387 60.31 26.71C60.2282 26.7988 60.1294 26.8702 60.0195 26.92C59.9095 26.9699 59.7907 26.9971 59.67 27ZM50.24 26.61C50.0601 26.61 49.8847 26.5542 49.7379 26.4503C49.591 26.3464 49.48 26.1996 49.42 26.03C49.3781 25.9167 49.3601 25.7959 49.3669 25.6753C49.3737 25.5546 49.4054 25.4367 49.4598 25.3288C49.5142 25.2209 49.5902 25.1254 49.6832 25.0482C49.7761 24.971 49.884 24.9137 50 24.88C51.0682 24.4998 52.165 24.2055 53.28 24C53.5067 23.9623 53.739 24.0158 53.9264 24.1488C54.1137 24.2819 54.2409 24.4836 54.28 24.71C54.2986 24.823 54.2947 24.9385 54.2685 25.0499C54.2423 25.1614 54.1944 25.2666 54.1276 25.3594C54.0607 25.4523 53.9761 25.5311 53.8787 25.5913C53.7813 25.6514 53.673 25.6918 53.56 25.71C52.5393 25.9009 51.5359 26.1752 50.56 26.53C50.4579 26.5686 50.349 26.5856 50.24 26.58V26.61ZM49.24 23.17C49.0902 23.166 48.9433 23.1284 48.81 23.06C48.7095 23.0029 48.6213 22.9265 48.5504 22.8353C48.4794 22.7441 48.4271 22.6398 48.3965 22.5284C48.3658 22.4169 48.3574 22.3006 48.3718 22.1859C48.3861 22.0712 48.4229 21.9605 48.48 21.86C48.674 21.5125 48.8912 21.1784 49.13 20.86C49.6291 20.1976 50.222 19.6115 50.89 19.12C51.0763 19.0351 51.2863 19.0178 51.4839 19.071C51.6815 19.1242 51.8544 19.2447 51.9729 19.4116C52.0913 19.5786 52.1478 19.7816 52.1326 19.9857C52.1175 20.1899 52.0317 20.3823 51.89 20.53C51.3566 20.917 50.8846 21.3822 50.49 21.91C50.2973 22.1657 50.1203 22.4329 49.96 22.71C49.8833 22.843 49.7723 22.953 49.6386 23.0286C49.505 23.1043 49.3535 23.1427 49.2 23.14L49.24 23.17ZM69.68 23C69.4599 22.9985 69.2487 22.9126 69.09 22.76C68.68 22.39 68.25 22.03 67.82 21.69C67.4333 21.396 67.0292 21.1255 66.61 20.88C66.4317 20.7518 66.3078 20.5616 66.2625 20.3467C66.2173 20.1319 66.254 19.9078 66.3655 19.7186C66.477 19.5295 66.6553 19.3888 66.8652 19.3243C67.0751 19.2598 67.3015 19.2761 67.5 19.37C67.9815 19.652 68.4456 19.9626 68.89 20.3C69.37 20.68 69.83 21.07 70.27 21.48C70.3973 21.6001 70.486 21.7555 70.5245 21.9262C70.5631 22.097 70.5499 22.2754 70.4865 22.4386C70.4232 22.6017 70.3126 22.7423 70.1689 22.8423C70.0253 22.9424 69.855 22.9973 69.68 23ZM64.06 19.64C63.9673 19.6553 63.8727 19.6553 63.78 19.64C62.7884 19.3017 61.7673 19.0573 60.73 18.91C60.6149 18.8941 60.5041 18.8555 60.4039 18.7965C60.3038 18.7375 60.2163 18.6593 60.1466 18.5663C60.0769 18.4733 60.0263 18.3675 59.9977 18.2548C59.9691 18.1422 59.9631 18.025 59.98 17.91C60.0147 17.6787 60.139 17.4703 60.3262 17.3299C60.5133 17.1895 60.7482 17.1285 60.98 17.16C62.126 17.3199 63.2544 17.5878 64.35 17.96C64.5501 18.0227 64.7208 18.1555 64.8308 18.334C64.9407 18.5125 64.9825 18.7248 64.9484 18.9316C64.9143 19.1385 64.8067 19.3261 64.6453 19.4599C64.4839 19.5938 64.2796 19.6648 64.07 19.66L64.06 19.64ZM54.31 19.28C54.1231 19.2809 53.9409 19.2209 53.7912 19.109C53.6414 18.9971 53.5322 18.8395 53.48 18.66C53.4461 18.5504 53.4342 18.4351 53.4451 18.3208C53.4559 18.2066 53.4892 18.0956 53.5431 17.9943C53.597 17.893 53.6705 17.8033 53.7592 17.7305C53.8479 17.6577 53.9501 17.6031 54.06 17.57C55.1832 17.24 56.341 17.042 57.51 16.98C57.729 16.9892 57.9366 17.0798 58.0923 17.2341C58.248 17.3884 58.3405 17.5952 58.3518 17.814C58.3631 18.0329 58.2922 18.2481 58.1532 18.4175C58.0141 18.5869 57.8169 18.6984 57.6 18.73C56.5826 18.7808 55.5752 18.9555 54.6 19.25C54.5029 19.2556 54.4054 19.2489 54.31 19.23V19.28Z" fill="#CEDEF9"/>
<path d="M57.14 59.55C56.5422 59.5651 55.9441 59.5384 55.35 59.47C55.2343 59.4554 55.1228 59.4176 55.022 59.359C54.9211 59.3004 54.8331 59.2221 54.7632 59.1289C54.6932 59.0356 54.6427 58.9292 54.6147 58.816C54.5867 58.7028 54.5817 58.5851 54.6 58.47C54.6347 58.2386 54.759 58.0302 54.9462 57.8899C55.1333 57.7495 55.3682 57.6885 55.6 57.72C56.1149 57.7732 56.6326 57.7932 57.15 57.78C57.3659 57.8031 57.5657 57.9053 57.7109 58.0668C57.856 58.2283 57.9363 58.4378 57.9363 58.655C57.9363 58.8722 57.856 59.0817 57.7109 59.2432C57.5657 59.4047 57.3659 59.5069 57.15 59.53L57.14 59.55Z" fill="#CEDEF9"/>
</svg>
